PathFileType	4	(X/Y/Z)	C:\Users\WrightLab\Desktop\Jo\P4V124.trc
DataRate	CameraRate	NumFrames	NumMarkers	Units	OrigDataRate	OrigDataStartFrame	OrigNumFrames
100.00	100.00	       22	19	mm	100.00	1	       562
Frame#	Time	Headset_Front			Headset_Back			Headset_Left			Headset_Right			Left_Shoulder			Right_Shoulder			Sternum			C7			Left Elbow			Right Elbow			Left Wrist			Right Wrist			Left ASIS			Right ASIS			S2			Left Knee			Right Knee			Left Ankle			Right Ankle			
		X1	Y1	Z1	X2	Y2	Z2	X3	Y3	Z3	X4	Y4	Z4	X5	Y5	Z5	X6	Y6	Z6	X7	Y7	Z7	X8	Y8	Z8	X9	Y9	Z9	X10	Y10	Z10	X11	Y11	Z11	X12	Y12	Z12	X13	Y13	Z13	X14	Y14	Z14	X15	Y15	Z15	X16	Y16	Z16	X17	Y17	Z17	X18	Y18	Z18	X19	Y19	Z19	

1	0.000																															59.96613	926.89899	-1420.23181							-267.99283	999.36743	-1570.44983				73.36093	504.93985	-1607.57520										
2	0.010																															58.18587	928.20703	-1420.98450							-266.99390	998.63818	-1571.58044				73.45636	505.27554	-1606.66602										
3	0.020																															54.41149	927.54694	-1421.49487							-266.69235	998.00958	-1569.79602				73.45636	505.27554	-1606.66602										
4	0.030																															53.24408	926.41394	-1424.60669							-265.90195	996.87531	-1570.84814				73.41302	505.12308	-1607.07898										
5	0.040																															52.51899	926.07898	-1423.69177							-266.56061	996.98700	-1567.45264				73.30453	504.82056	-1608.12122										
6	0.050																															52.34326	924.66797	-1425.21362							-266.72580	996.30157	-1568.43921				73.19151	504.48209	-1609.20435	-253.23125	508.72568	-1560.44189							
7	0.060																															50.85073	921.86487	-1422.53967							-266.99915	995.45428	-1570.11975				73.14875	504.34134	-1609.61292	-255.35590	510.09662	-1553.56897							
8	0.070																															50.55288	920.66406	-1421.34460							-267.59854	994.49866	-1573.97034				73.20028	504.46521	-1609.11572	-256.80103	509.89160	-1548.20068							
9	0.080																															50.78458	918.90344	-1422.96826							-269.29645	995.87378	-1571.84998				73.37041	504.98825	-1607.48645	-258.51953	511.51688	-1541.10999							
10	0.090																															49.97704	915.26471	-1422.08154							-269.73602	995.31018	-1574.69373				73.50919	505.41904	-1606.15808	-259.50070	512.47626	-1535.83228							
11	0.100																															50.70923	911.93890	-1423.28955							-269.89679	994.96887	-1575.70837				73.62852	505.71936	-1605.00806	-260.59894	513.31744	-1531.54358							
12	0.110																															50.66528	907.46027	-1422.91418							-270.11993	994.56964	-1577.13074				73.66367	505.78323	-1604.66675	-262.08417	514.71375	-1526.56226							
13	0.120																															50.46793	904.41974	-1422.78308							-271.90747	995.02118	-1574.16919				73.64252	505.70728	-1604.86804	-265.09866	518.12366	-1518.62439							
14	0.130																															50.68465	901.24786	-1421.83374							-273.16046	994.65112	-1574.79224				72.85481	505.43600	-1604.18713	-268.38806	520.33606	-1512.58667							
15	0.140																															53.22668	896.33105	-1427.22974							-274.58566	994.62433	-1577.64136				72.62289	504.71222	-1606.40417	-271.26996	522.46753	-1508.96948							
16	0.150																															54.73421	891.97644	-1425.89636							-276.72067	995.39252	-1578.32593				70.96518	505.59375	-1603.75903	-275.52713	525.36487	-1502.41077							
17	0.160																															55.51484	891.90076	-1418.10315							-277.09109	994.97314	-1580.71692				69.27552	505.72961	-1601.32629	-278.48569	527.30469	-1502.50073							
18	0.170																															55.90149	889.05023	-1414.42957							-278.08203	995.67096	-1578.85754				69.06950	505.11877	-1603.28784	-283.59351	530.75201	-1493.80627							
19	0.180																															59.46886	883.99078	-1423.74451							-278.21600	995.76062	-1579.76465				68.84866	504.50333	-1605.39441	-287.23819	532.21942	-1493.53589							
20	0.190																															58.90334	881.67328	-1420.71643							-280.36139	998.11432	-1575.09656				66.70363	507.20148	-1600.70667	-291.53064	535.16986	-1488.35974							
21	0.200																															59.59195	879.83118	-1421.85559							-282.38269	998.43823	-1573.68555				66.55820	506.75952	-1602.08496	-295.18076	536.72095	-1487.27307							
22	0.210																															58.96865	878.84869	-1419.93054							-283.28839	997.79272	-1580.70020				65.26086	506.62561	-1600.08667	-300.66760	538.44208	-1487.38098							
